<svg width="606" height="606" viewBox="0 0 606 606" fill="none" xmlns="http://www.w3.org/2000/svg">
<g clip-path="url(#clip0_40_43)">
<path d="M303 0C135.668 0 0 135.668 0 303C0 470.351 135.668 606 303 606C470.332 606 606 470.351 606 303C605.998 135.668 470.33 0 303 0ZM387.876 533.828C386.133 510.118 384.183 480.746 384.069 468.853C383.312 459.725 382.326 436.508 360.284 421.681C447.793 414.352 489.437 365.986 492.43 302.072C494.931 265.675 480.461 233.669 454.764 207.84C456.071 180.211 453.93 147.467 452.151 133.076C432.419 127.395 386.401 151.691 373.541 162.088C346.422 151.558 280.047 147.866 239.71 162.088C211.114 141.977 178.561 129.554 160.817 133.02C144.436 169.323 154.966 203.638 158.165 207.727C137.068 227.007 107.639 250.735 115.631 300.446C128.452 373.335 179.734 412.651 262.301 422.27C244.69 425.868 241.716 439.011 240.239 444.711C184.789 467.586 168.94 430.584 161.932 420.945C138.659 392.14 117.77 400.492 116.482 400.946C115.232 401.399 114.285 403.217 114.419 404.089C115.592 410.3 128.262 416.607 128.886 417.117C146.062 429.918 152.426 453.042 156.345 459.632C180.982 500.139 238.25 483.342 238.799 483.683C238.837 487.223 238.402 517.033 238.061 540.231C133.642 511.709 56.812 416.453 56.812 303C56.812 167.029 167.029 56.8141 302.998 56.8141C438.967 56.8141 549.186 167.029 549.186 303C549.186 409.106 481.959 499.228 387.876 533.828Z" fill="#2B414D" fill-opacity="0.4"/>
</g>
<defs>
<clipPath id="clip0_40_43">
<rect width="606" height="606" fill="white"/>
</clipPath>
</defs>
</svg>
